<svg width="768" height="160" viewBox="0 0 768 160" fill="none" xmlns="http://www.w3.org/2000/svg">
<g style="mix-blend-mode:multiply" opacity="0.3">
<path d="M19.0489 140.391L37.424 156.867C37.809 157.212 38.4176 157.166 38.7296 156.747C42.451 151.785 41.4411 144.347 36.2497 139.692C31.0582 135.037 23.5562 134.84 19.0263 139.08C18.6454 139.437 18.6639 140.046 19.0489 140.391Z" fill="#FF6633"/>
<path d="M39.7809 59.8982L20.671 44.2803C20.2706 43.9531 19.6648 44.0272 19.3723 44.46C15.8819 49.5872 17.2311 56.9711 22.6301 61.3835C28.0291 65.7959 35.5324 65.6498 39.8634 61.2066C40.2276 60.8324 40.1813 60.2254 39.7809 59.8982Z" fill="#FF6633"/>
<path d="M32.9431 86.8861C36.5666 86.5013 40.1299 92.0819 40.9019 99.3508C41.6738 106.62 39.3622 112.824 35.7387 113.209C32.1152 113.594 28.5519 108.013 27.78 100.744C27.008 93.4755 29.3196 87.2709 32.9431 86.8861Z" fill="#FCA21C"/>
<path fill-rule="evenodd" clip-rule="evenodd" d="M-12.6085 103.168C-13.8156 101.48 -13.4248 99.1363 -11.7355 97.9332C-7.93162 95.2239 -2.81247 94.4195 2.03602 95.9949C6.88459 97.5703 10.5524 101.231 12.0375 105.657C12.6972 107.623 11.6361 109.749 9.66744 110.405C7.69884 111.062 5.56821 110 4.90856 108.033C4.20776 105.945 2.37941 103.997 -0.283021 103.132C-2.94631 102.267 -5.56996 102.768 -7.36421 104.046C-9.05342 105.249 -11.4014 104.856 -12.6085 103.168Z" fill="#70C05B"/>
<path fill-rule="evenodd" clip-rule="evenodd" d="M24.9385 14.4159C24.6067 12.3674 25.9979 10.4414 28.0458 10.1138C32.6573 9.37629 37.6009 10.9296 41.245 14.4947C44.8892 18.0599 46.5493 22.9685 45.9136 27.5941C45.6312 29.6486 43.7362 31.0819 41.681 30.7953C39.6258 30.5087 38.1886 28.6109 38.471 26.5564C38.771 24.3736 37.9979 21.8169 35.9969 19.8592C33.9951 17.9008 31.4222 17.1839 29.247 17.5318C27.1992 17.8593 25.2702 16.4643 24.9385 14.4159Z" fill="#70C05B"/>
<path d="M-20.561 130.43C-20.9356 128.715 -19.8484 127.02 -18.1327 126.646L0.0403254 122.678C1.756 122.304 3.45049 123.391 3.82506 125.106L4.99499 130.465C5.36957 132.181 4.28239 133.875 2.56671 134.25L-15.6064 138.217C-17.322 138.592 -19.0165 137.505 -19.3911 135.789L-20.561 130.43Z" fill="#1CB9FC"/>
<path d="M-2.24822 79.4413C-3.55872 80.6102 -5.56872 80.4955 -6.73767 79.185L-19.1196 65.3037C-20.2886 63.9932 -20.1739 61.9832 -18.8634 60.8143L-14.7702 57.1632C-13.4597 55.9942 -11.4497 56.109 -10.2807 57.4195L2.10127 71.3007C3.27022 72.6112 3.15547 74.6212 1.84497 75.7902L-2.24822 79.4413Z" fill="#1CB9FC"/>
<path d="M87.914 27.9318L69.5388 11.4558C69.1539 11.1106 68.5453 11.1568 68.2333 11.5758C64.5119 16.5379 65.5218 23.9758 70.7132 28.6307C75.9047 33.2856 83.4067 33.4829 87.9366 29.2426C88.3175 28.8855 88.299 28.277 87.914 27.9318Z" fill="#FF6633"/>
<path d="M183.049 140.391L201.424 156.867C201.809 157.212 202.418 157.166 202.73 156.747C206.451 151.785 205.441 144.347 200.25 139.692C195.058 135.037 187.556 134.84 183.026 139.08C182.645 139.437 182.664 140.046 183.049 140.391Z" fill="#FF6633"/>
<path d="M203.781 59.8982L184.671 44.2803C184.271 43.9531 183.665 44.0272 183.372 44.46C179.882 49.5872 181.231 56.9711 186.63 61.3835C192.029 65.7959 199.532 65.6498 203.863 61.2066C204.228 60.8324 204.181 60.2254 203.781 59.8982Z" fill="#FF6633"/>
<path d="M79.8176 114.23L97.1994 96.7093C97.5635 96.3422 97.5481 95.732 97.1454 95.3993C92.3772 91.4324 84.8979 92.0659 79.9871 97.0159C75.0763 101.966 74.5008 109.449 78.5073 114.187C78.8448 114.585 79.4534 114.597 79.8176 114.23Z" fill="#FF6633"/>
<path d="M76.1194 74.3531C72.4959 74.738 68.9326 69.1573 68.1606 61.8885C67.3887 54.6196 69.7003 48.4151 73.3238 48.0303C76.9473 47.6455 80.5106 53.2261 81.2825 60.4949C82.0545 67.7638 79.7429 73.9683 76.1194 74.3531Z" fill="#FCA21C"/>
<path d="M196.943 86.8861C200.567 86.5013 204.13 92.0819 204.902 99.3508C205.674 106.62 203.362 112.824 199.739 113.209C196.115 113.594 192.552 108.013 191.78 100.744C191.008 93.4755 193.32 87.2709 196.943 86.8861Z" fill="#FCA21C"/>
<path d="M157.43 18.1136C159.786 19.8074 158.238 25.9921 153.971 31.9275C149.705 37.863 144.336 41.3015 141.979 39.6077C139.623 37.9139 141.172 31.7292 145.438 25.7938C149.705 19.8583 155.073 16.4198 157.43 18.1136Z" fill="#FCA21C"/>
<path d="M122.366 118.979C119.481 118.665 117.784 112.52 118.575 105.253C119.366 97.9861 122.347 92.3499 125.231 92.6641C128.116 92.9782 129.814 99.1238 129.022 106.391C128.231 113.657 125.251 119.294 122.366 118.979Z" fill="#FCA21C"/>
<path fill-rule="evenodd" clip-rule="evenodd" d="M123.898 56.9792C125.105 58.667 124.714 61.0106 123.025 62.2137C119.221 64.923 114.102 65.7274 109.253 64.152C104.404 62.5767 100.737 58.9164 99.2515 54.4899C98.5919 52.5237 99.653 50.3979 101.622 49.7417C103.59 49.0854 105.721 50.1474 106.381 52.1135C107.081 54.2023 108.91 56.1496 111.572 57.0147C114.235 57.88 116.859 57.3793 118.653 56.1014C120.342 54.8983 122.69 55.2913 123.898 56.9792Z" fill="#70C05B"/>
<path fill-rule="evenodd" clip-rule="evenodd" d="M151.392 103.168C150.184 101.48 150.575 99.1363 152.264 97.9332C156.068 95.2239 161.188 94.4195 166.036 95.9949C170.885 97.5703 174.552 101.231 176.038 105.657C176.697 107.623 175.636 109.749 173.667 110.405C171.699 111.062 169.568 110 168.909 108.033C168.208 105.945 166.379 103.997 163.717 103.132C161.054 102.267 158.43 102.768 156.636 104.046C154.947 105.249 152.599 104.856 151.392 103.168Z" fill="#70C05B"/>
<path fill-rule="evenodd" clip-rule="evenodd" d="M188.938 14.4159C188.607 12.3674 189.998 10.4414 192.046 10.1138C196.657 9.37629 201.601 10.9296 205.245 14.4947C208.889 18.0599 210.549 22.9685 209.914 27.5941C209.631 29.6486 207.736 31.0819 205.681 30.7953C203.626 30.5087 202.189 28.6109 202.471 26.5564C202.771 24.3736 201.998 21.8169 199.997 19.8592C197.995 17.9008 195.422 17.1839 193.247 17.5318C191.199 17.8593 189.27 16.4643 188.938 14.4159Z" fill="#70C05B"/>
<path fill-rule="evenodd" clip-rule="evenodd" d="M130.645 145.114C132.112 146.581 132.11 148.957 130.641 150.421C127.332 153.716 122.413 155.348 117.372 154.588C112.331 153.828 108.114 150.817 105.924 146.694C104.951 144.862 105.65 142.591 107.484 141.621C109.319 140.652 111.595 141.35 112.567 143.182C113.601 145.128 115.723 146.749 118.491 147.167C121.26 147.584 123.767 146.661 125.328 145.107C126.797 143.643 129.178 143.646 130.645 145.114Z" fill="#70C05B"/>
<path d="M108.535 17.4964C107.557 16.038 107.946 14.0627 109.404 13.0845L124.852 2.72311C126.311 1.74492 128.286 2.13421 129.264 3.59263L132.32 8.14785C133.298 9.60627 132.909 11.5815 131.45 12.5597L116.002 22.9212C114.544 23.8993 112.568 23.51 111.59 22.0516L108.535 17.4964Z" fill="#1CB9FC"/>
<path d="M143.439 130.43C143.064 128.715 144.152 127.02 145.867 126.646L164.04 122.678C165.756 122.304 167.45 123.391 167.825 125.106L168.995 130.465C169.37 132.181 168.282 133.875 166.567 134.25L148.394 138.217C146.678 138.592 144.983 137.505 144.609 135.789L143.439 130.43Z" fill="#1CB9FC"/>
<path d="M161.752 79.4413C160.441 80.6102 158.431 80.4955 157.262 79.185L144.88 65.3037C143.711 63.9932 143.826 61.9832 145.137 60.8143L149.23 57.1632C150.54 55.9942 152.55 56.109 153.719 57.4195L166.101 71.3007C167.27 72.6112 167.155 74.6212 165.845 75.7902L161.752 79.4413Z" fill="#1CB9FC"/>
<path d="M75.3017 127.871C77.0325 127.574 78.6764 128.736 78.9735 130.467L82.1206 148.8C82.4177 150.531 81.2554 152.175 79.5247 152.472L74.1188 153.4C72.388 153.697 70.7441 152.535 70.447 150.804L67.2999 132.471C67.0028 130.74 68.165 129.096 69.8958 128.799L75.3017 127.871Z" fill="#1CB9FC"/>
<path d="M251.914 27.9318L233.539 11.4558C233.154 11.1106 232.545 11.1568 232.233 11.5758C228.512 16.5379 229.522 23.9758 234.713 28.6307C239.905 33.2856 247.407 33.4829 251.937 29.2426C252.317 28.8855 252.299 28.277 251.914 27.9318Z" fill="#FF6633"/>
<path d="M347.049 140.391L365.424 156.867C365.809 157.212 366.418 157.166 366.73 156.747C370.451 151.785 369.441 144.347 364.25 139.692C359.058 135.037 351.556 134.84 347.026 139.08C346.645 139.437 346.664 140.046 347.049 140.391Z" fill="#FF6633"/>
<path d="M367.781 59.8982L348.671 44.2803C348.271 43.9531 347.665 44.0272 347.372 44.46C343.882 49.5872 345.231 56.9711 350.63 61.3835C356.029 65.7959 363.532 65.6498 367.863 61.2066C368.228 60.8324 368.181 60.2254 367.781 59.8982Z" fill="#FF6633"/>
<path d="M243.818 114.23L261.199 96.7093C261.564 96.3422 261.548 95.732 261.145 95.3993C256.377 91.4324 248.898 92.0659 243.987 97.0159C239.076 101.966 238.501 109.449 242.507 114.187C242.845 114.585 243.453 114.597 243.818 114.23Z" fill="#FF6633"/>
<path d="M240.119 74.3531C236.496 74.738 232.933 69.1573 232.161 61.8885C231.389 54.6196 233.7 48.4151 237.324 48.0303C240.947 47.6455 244.511 53.2261 245.283 60.4949C246.055 67.7638 243.743 73.9683 240.119 74.3531Z" fill="#FCA21C"/>
<path d="M360.943 86.8861C364.567 86.5013 368.13 92.0819 368.902 99.3508C369.674 106.62 367.362 112.824 363.739 113.209C360.115 113.594 356.552 108.013 355.78 100.744C355.008 93.4755 357.32 87.2709 360.943 86.8861Z" fill="#FCA21C"/>
<path d="M321.43 18.1136C323.786 19.8074 322.238 25.9921 317.971 31.9275C313.705 37.863 308.336 41.3015 305.979 39.6077C303.623 37.9139 305.172 31.7292 309.438 25.7938C313.705 19.8583 319.073 16.4198 321.43 18.1136Z" fill="#FCA21C"/>
<path d="M286.366 118.979C283.481 118.665 281.784 112.52 282.575 105.253C283.366 97.9861 286.347 92.3499 289.231 92.6641C292.116 92.9782 293.814 99.1238 293.022 106.391C292.231 113.657 289.251 119.294 286.366 118.979Z" fill="#FCA21C"/>
<path fill-rule="evenodd" clip-rule="evenodd" d="M287.898 56.9792C289.105 58.667 288.714 61.0106 287.025 62.2137C283.221 64.923 278.102 65.7274 273.253 64.152C268.404 62.5767 264.737 58.9164 263.252 54.4899C262.592 52.5237 263.653 50.3979 265.622 49.7417C267.59 49.0854 269.721 50.1474 270.381 52.1135C271.081 54.2023 272.91 56.1496 275.572 57.0147C278.235 57.88 280.859 57.3793 282.653 56.1014C284.342 54.8983 286.69 55.2913 287.898 56.9792Z" fill="#70C05B"/>
<path fill-rule="evenodd" clip-rule="evenodd" d="M315.392 103.168C314.184 101.48 314.575 99.1363 316.264 97.9332C320.068 95.2239 325.188 94.4195 330.036 95.9949C334.885 97.5703 338.552 101.231 340.038 105.657C340.697 107.623 339.636 109.749 337.667 110.405C335.699 111.062 333.568 110 332.909 108.033C332.208 105.945 330.379 103.997 327.717 103.132C325.054 102.267 322.43 102.768 320.636 104.046C318.947 105.249 316.599 104.856 315.392 103.168Z" fill="#70C05B"/>
<path fill-rule="evenodd" clip-rule="evenodd" d="M352.938 14.4159C352.607 12.3674 353.998 10.4414 356.046 10.1138C360.657 9.37629 365.601 10.9296 369.245 14.4947C372.889 18.0599 374.549 22.9685 373.914 27.5941C373.631 29.6486 371.736 31.0819 369.681 30.7953C367.626 30.5087 366.189 28.6109 366.471 26.5564C366.771 24.3736 365.998 21.8169 363.997 19.8592C361.995 17.9008 359.422 17.1839 357.247 17.5318C355.199 17.8593 353.27 16.4643 352.938 14.4159Z" fill="#70C05B"/>
<path fill-rule="evenodd" clip-rule="evenodd" d="M294.645 145.114C296.112 146.581 296.11 148.957 294.641 150.421C291.332 153.716 286.413 155.348 281.372 154.588C276.331 153.828 272.114 150.817 269.924 146.694C268.951 144.862 269.65 142.591 271.484 141.621C273.319 140.652 275.595 141.35 276.567 143.182C277.601 145.128 279.723 146.749 282.491 147.167C285.26 147.584 287.767 146.661 289.328 145.107C290.797 143.643 293.178 143.646 294.645 145.114Z" fill="#70C05B"/>
<path d="M272.535 17.4964C271.557 16.038 271.946 14.0627 273.404 13.0845L288.852 2.72311C290.311 1.74492 292.286 2.13421 293.264 3.59263L296.32 8.14785C297.298 9.60627 296.909 11.5815 295.45 12.5597L280.002 22.9212C278.544 23.8993 276.568 23.51 275.59 22.0516L272.535 17.4964Z" fill="#1CB9FC"/>
<path d="M307.439 130.43C307.064 128.715 308.152 127.02 309.867 126.646L328.04 122.678C329.756 122.304 331.45 123.391 331.825 125.106L332.995 130.465C333.37 132.181 332.282 133.875 330.567 134.25L312.394 138.217C310.678 138.592 308.983 137.505 308.609 135.789L307.439 130.43Z" fill="#1CB9FC"/>
<path d="M325.752 79.4413C324.441 80.6102 322.431 80.4955 321.262 79.185L308.88 65.3037C307.711 63.9932 307.826 61.9832 309.137 60.8143L313.23 57.1632C314.54 55.9942 316.55 56.109 317.719 57.4195L330.101 71.3007C331.27 72.6112 331.155 74.6212 329.845 75.7902L325.752 79.4413Z" fill="#1CB9FC"/>
<path d="M239.302 127.871C241.032 127.574 242.676 128.736 242.974 130.467L246.121 148.8C246.418 150.531 245.255 152.175 243.525 152.472L238.119 153.4C236.388 153.697 234.744 152.535 234.447 150.804L231.3 132.471C231.003 130.74 232.165 129.096 233.896 128.799L239.302 127.871Z" fill="#1CB9FC"/>
<path d="M415.914 27.9318L397.539 11.4558C397.154 11.1106 396.545 11.1568 396.233 11.5758C392.512 16.5379 393.522 23.9758 398.713 28.6307C403.905 33.2856 411.407 33.4829 415.937 29.2426C416.317 28.8855 416.299 28.277 415.914 27.9318Z" fill="#FF6633"/>
<path d="M511.049 140.391L529.424 156.867C529.809 157.212 530.418 157.166 530.73 156.747C534.451 151.785 533.441 144.347 528.25 139.692C523.058 135.037 515.556 134.84 511.026 139.08C510.645 139.437 510.664 140.046 511.049 140.391Z" fill="#FF6633"/>
<path d="M531.781 59.8982L512.671 44.2803C512.271 43.9531 511.665 44.0272 511.372 44.46C507.882 49.5872 509.231 56.9711 514.63 61.3835C520.029 65.7959 527.532 65.6498 531.863 61.2066C532.228 60.8324 532.181 60.2254 531.781 59.8982Z" fill="#FF6633"/>
<path d="M407.818 114.23L425.199 96.7093C425.564 96.3422 425.548 95.732 425.145 95.3993C420.377 91.4324 412.898 92.0659 407.987 97.0159C403.076 101.966 402.501 109.449 406.507 114.187C406.845 114.585 407.453 114.597 407.818 114.23Z" fill="#FF6633"/>
<path d="M404.119 74.3531C400.496 74.738 396.933 69.1573 396.161 61.8885C395.389 54.6196 397.7 48.4151 401.324 48.0303C404.947 47.6455 408.511 53.2261 409.283 60.4949C410.055 67.7638 407.743 73.9683 404.119 74.3531Z" fill="#FCA21C"/>
<path d="M524.943 86.8861C528.567 86.5013 532.13 92.0819 532.902 99.3508C533.674 106.62 531.362 112.824 527.739 113.209C524.115 113.594 520.552 108.013 519.78 100.744C519.008 93.4755 521.32 87.2709 524.943 86.8861Z" fill="#FCA21C"/>
<path d="M485.43 18.1136C487.786 19.8074 486.238 25.9921 481.971 31.9275C477.705 37.863 472.336 41.3015 469.979 39.6077C467.623 37.9139 469.172 31.7292 473.438 25.7938C477.705 19.8583 483.073 16.4198 485.43 18.1136Z" fill="#FCA21C"/>
<path d="M450.366 118.979C447.481 118.665 445.784 112.52 446.575 105.253C447.366 97.9861 450.347 92.3499 453.231 92.6641C456.116 92.9782 457.814 99.1238 457.022 106.391C456.231 113.657 453.251 119.294 450.366 118.979Z" fill="#FCA21C"/>
<path fill-rule="evenodd" clip-rule="evenodd" d="M451.898 56.9792C453.105 58.667 452.714 61.0106 451.025 62.2137C447.221 64.923 442.102 65.7274 437.253 64.152C432.404 62.5767 428.737 58.9164 427.252 54.4899C426.592 52.5237 427.653 50.3979 429.622 49.7417C431.59 49.0854 433.721 50.1474 434.381 52.1135C435.081 54.2023 436.91 56.1496 439.572 57.0147C442.235 57.88 444.859 57.3793 446.653 56.1014C448.342 54.8983 450.69 55.2913 451.898 56.9792Z" fill="#70C05B"/>
<path fill-rule="evenodd" clip-rule="evenodd" d="M479.392 103.168C478.184 101.48 478.575 99.1363 480.264 97.9332C484.068 95.2239 489.188 94.4195 494.036 95.9949C498.885 97.5703 502.552 101.231 504.038 105.657C504.697 107.623 503.636 109.749 501.667 110.405C499.699 111.062 497.568 110 496.909 108.033C496.208 105.945 494.379 103.997 491.717 103.132C489.054 102.267 486.43 102.768 484.636 104.046C482.947 105.249 480.599 104.856 479.392 103.168Z" fill="#70C05B"/>
<path fill-rule="evenodd" clip-rule="evenodd" d="M516.938 14.4159C516.607 12.3674 517.998 10.4414 520.046 10.1138C524.657 9.37629 529.601 10.9296 533.245 14.4947C536.889 18.0599 538.549 22.9685 537.914 27.5941C537.631 29.6486 535.736 31.0819 533.681 30.7953C531.626 30.5087 530.189 28.6109 530.471 26.5564C530.771 24.3736 529.998 21.8169 527.997 19.8592C525.995 17.9008 523.422 17.1839 521.247 17.5318C519.199 17.8593 517.27 16.4643 516.938 14.4159Z" fill="#70C05B"/>
<path fill-rule="evenodd" clip-rule="evenodd" d="M458.645 145.114C460.112 146.581 460.11 148.957 458.641 150.421C455.332 153.716 450.413 155.348 445.372 154.588C440.331 153.828 436.114 150.817 433.924 146.694C432.951 144.862 433.65 142.591 435.484 141.621C437.319 140.652 439.595 141.35 440.567 143.182C441.601 145.128 443.723 146.749 446.491 147.167C449.26 147.584 451.767 146.661 453.328 145.107C454.797 143.643 457.178 143.646 458.645 145.114Z" fill="#70C05B"/>
<path d="M436.535 17.4964C435.557 16.038 435.946 14.0627 437.404 13.0845L452.852 2.72311C454.311 1.74492 456.286 2.13421 457.264 3.59263L460.32 8.14785C461.298 9.60627 460.909 11.5815 459.45 12.5597L444.002 22.9212C442.544 23.8993 440.568 23.51 439.59 22.0516L436.535 17.4964Z" fill="#1CB9FC"/>
<path d="M471.439 130.43C471.064 128.715 472.152 127.02 473.867 126.646L492.04 122.678C493.756 122.304 495.45 123.391 495.825 125.106L496.995 130.465C497.37 132.181 496.282 133.875 494.567 134.25L476.394 138.217C474.678 138.592 472.983 137.505 472.609 135.789L471.439 130.43Z" fill="#1CB9FC"/>
<path d="M489.752 79.4413C488.441 80.6102 486.431 80.4955 485.262 79.185L472.88 65.3037C471.711 63.9932 471.826 61.9832 473.137 60.8143L477.23 57.1632C478.54 55.9942 480.55 56.109 481.719 57.4195L494.101 71.3007C495.27 72.6112 495.155 74.6212 493.845 75.7902L489.752 79.4413Z" fill="#1CB9FC"/>
<path d="M403.302 127.871C405.032 127.574 406.676 128.736 406.974 130.467L410.121 148.8C410.418 150.531 409.255 152.175 407.525 152.472L402.119 153.4C400.388 153.697 398.744 152.535 398.447 150.804L395.3 132.471C395.003 130.74 396.165 129.096 397.896 128.799L403.302 127.871Z" fill="#1CB9FC"/>
<path d="M579.914 27.9318L561.539 11.4558C561.154 11.1106 560.545 11.1568 560.233 11.5758C556.512 16.5379 557.522 23.9758 562.713 28.6307C567.905 33.2856 575.407 33.4829 579.937 29.2426C580.317 28.8855 580.299 28.277 579.914 27.9318Z" fill="#FF6633"/>
<path d="M675.049 140.391L693.424 156.867C693.809 157.212 694.418 157.166 694.73 156.747C698.451 151.785 697.441 144.347 692.25 139.692C687.058 135.037 679.556 134.84 675.026 139.08C674.645 139.437 674.664 140.046 675.049 140.391Z" fill="#FF6633"/>
<path d="M695.781 59.8982L676.671 44.2803C676.271 43.9531 675.665 44.0272 675.372 44.46C671.882 49.5872 673.231 56.9711 678.63 61.3835C684.029 65.7959 691.532 65.6498 695.863 61.2066C696.228 60.8324 696.181 60.2254 695.781 59.8982Z" fill="#FF6633"/>
<path d="M571.818 114.23L589.199 96.7093C589.564 96.3422 589.548 95.732 589.145 95.3993C584.377 91.4324 576.898 92.0659 571.987 97.0159C567.076 101.966 566.501 109.449 570.507 114.187C570.845 114.585 571.453 114.597 571.818 114.23Z" fill="#FF6633"/>
<path d="M568.119 74.3531C564.496 74.738 560.933 69.1573 560.161 61.8885C559.389 54.6196 561.7 48.4151 565.324 48.0303C568.947 47.6455 572.511 53.2261 573.283 60.4949C574.055 67.7638 571.743 73.9683 568.119 74.3531Z" fill="#FCA21C"/>
<path d="M688.943 86.8861C692.567 86.5013 696.13 92.0819 696.902 99.3508C697.674 106.62 695.362 112.824 691.739 113.209C688.115 113.594 684.552 108.013 683.78 100.744C683.008 93.4755 685.32 87.2709 688.943 86.8861Z" fill="#FCA21C"/>
<path d="M649.43 18.1136C651.786 19.8074 650.238 25.9921 645.971 31.9275C641.705 37.863 636.336 41.3015 633.979 39.6077C631.623 37.9139 633.172 31.7292 637.438 25.7938C641.705 19.8583 647.073 16.4198 649.43 18.1136Z" fill="#FCA21C"/>
<path d="M614.366 118.979C611.481 118.665 609.784 112.52 610.575 105.253C611.366 97.9861 614.347 92.3499 617.231 92.6641C620.116 92.9782 621.814 99.1238 621.022 106.391C620.231 113.657 617.251 119.294 614.366 118.979Z" fill="#FCA21C"/>
<path fill-rule="evenodd" clip-rule="evenodd" d="M615.898 56.9792C617.105 58.667 616.714 61.0106 615.025 62.2137C611.221 64.923 606.102 65.7274 601.253 64.152C596.404 62.5767 592.737 58.9164 591.252 54.4899C590.592 52.5237 591.653 50.3979 593.622 49.7417C595.59 49.0854 597.721 50.1474 598.381 52.1135C599.081 54.2023 600.91 56.1496 603.572 57.0147C606.235 57.88 608.859 57.3793 610.653 56.1014C612.342 54.8983 614.69 55.2913 615.898 56.9792Z" fill="#70C05B"/>
<path fill-rule="evenodd" clip-rule="evenodd" d="M643.392 103.168C642.184 101.48 642.575 99.1363 644.264 97.9332C648.068 95.2239 653.188 94.4195 658.036 95.9949C662.885 97.5703 666.552 101.231 668.038 105.657C668.697 107.623 667.636 109.749 665.667 110.405C663.699 111.062 661.568 110 660.909 108.033C660.208 105.945 658.379 103.997 655.717 103.132C653.054 102.267 650.43 102.768 648.636 104.046C646.947 105.249 644.599 104.856 643.392 103.168Z" fill="#70C05B"/>
<path fill-rule="evenodd" clip-rule="evenodd" d="M680.938 14.4159C680.607 12.3674 681.998 10.4414 684.046 10.1138C688.657 9.37629 693.601 10.9296 697.245 14.4947C700.889 18.0599 702.549 22.9685 701.914 27.5941C701.631 29.6486 699.736 31.0819 697.681 30.7953C695.626 30.5087 694.189 28.6109 694.471 26.5564C694.771 24.3736 693.998 21.8169 691.997 19.8592C689.995 17.9008 687.422 17.1839 685.247 17.5318C683.199 17.8593 681.27 16.4643 680.938 14.4159Z" fill="#70C05B"/>
<path fill-rule="evenodd" clip-rule="evenodd" d="M622.645 145.114C624.112 146.581 624.11 148.957 622.641 150.421C619.332 153.716 614.413 155.348 609.372 154.588C604.331 153.828 600.114 150.817 597.924 146.694C596.951 144.862 597.65 142.591 599.484 141.621C601.319 140.652 603.595 141.35 604.567 143.182C605.601 145.128 607.723 146.749 610.491 147.167C613.26 147.584 615.767 146.661 617.328 145.107C618.797 143.643 621.178 143.646 622.645 145.114Z" fill="#70C05B"/>
<path d="M600.535 17.4964C599.557 16.038 599.946 14.0627 601.404 13.0845L616.852 2.72311C618.311 1.74492 620.286 2.13421 621.264 3.59263L624.32 8.14785C625.298 9.60627 624.909 11.5815 623.45 12.5597L608.002 22.9212C606.544 23.8993 604.568 23.51 603.59 22.0516L600.535 17.4964Z" fill="#1CB9FC"/>
<path d="M635.439 130.43C635.064 128.715 636.152 127.02 637.867 126.646L656.04 122.678C657.756 122.304 659.45 123.391 659.825 125.106L660.995 130.465C661.37 132.181 660.282 133.875 658.567 134.25L640.394 138.217C638.678 138.592 636.983 137.505 636.609 135.789L635.439 130.43Z" fill="#1CB9FC"/>
<path d="M653.752 79.4413C652.441 80.6102 650.431 80.4955 649.262 79.185L636.88 65.3037C635.711 63.9932 635.826 61.9832 637.137 60.8143L641.23 57.1632C642.54 55.9942 644.55 56.109 645.719 57.4195L658.101 71.3007C659.27 72.6112 659.155 74.6212 657.845 75.7902L653.752 79.4413Z" fill="#1CB9FC"/>
<path d="M567.302 127.871C569.032 127.574 570.676 128.736 570.974 130.467L574.121 148.8C574.418 150.531 573.255 152.175 571.525 152.472L566.119 153.4C564.388 153.697 562.744 152.535 562.447 150.804L559.3 132.471C559.003 130.74 560.165 129.096 561.896 128.799L567.302 127.871Z" fill="#1CB9FC"/>
<path d="M743.914 27.9318L725.539 11.4558C725.154 11.1106 724.545 11.1568 724.233 11.5758C720.512 16.5379 721.522 23.9758 726.713 28.6307C731.905 33.2856 739.407 33.4829 743.937 29.2426C744.317 28.8855 744.299 28.277 743.914 27.9318Z" fill="#FF6633"/>
<path d="M735.818 114.23L753.199 96.7093C753.564 96.3422 753.548 95.732 753.145 95.3993C748.377 91.4324 740.898 92.0659 735.987 97.0159C731.076 101.966 730.501 109.449 734.507 114.187C734.845 114.585 735.453 114.597 735.818 114.23Z" fill="#FF6633"/>
<path d="M732.119 74.3531C728.496 74.738 724.933 69.1573 724.161 61.8885C723.389 54.6196 725.7 48.4151 729.324 48.0303C732.947 47.6455 736.511 53.2261 737.283 60.4949C738.055 67.7638 735.743 73.9683 732.119 74.3531Z" fill="#FCA21C"/>
<path fill-rule="evenodd" clip-rule="evenodd" d="M779.898 56.9792C781.105 58.667 780.714 61.0106 779.025 62.2137C775.221 64.923 770.102 65.7274 765.253 64.152C760.404 62.5767 756.737 58.9164 755.252 54.4899C754.592 52.5237 755.653 50.3979 757.622 49.7417C759.59 49.0854 761.721 50.1474 762.381 52.1135C763.081 54.2023 764.91 56.1496 767.572 57.0147C770.235 57.88 772.859 57.3793 774.653 56.1014C776.342 54.8983 778.69 55.2913 779.898 56.9792Z" fill="#70C05B"/>
<path fill-rule="evenodd" clip-rule="evenodd" d="M786.645 145.114C788.112 146.581 788.11 148.957 786.641 150.421C783.332 153.716 778.413 155.348 773.372 154.588C768.331 153.828 764.114 150.817 761.924 146.694C760.951 144.862 761.65 142.591 763.484 141.621C765.319 140.652 767.595 141.35 768.567 143.182C769.601 145.128 771.723 146.749 774.491 147.167C777.26 147.584 779.767 146.661 781.328 145.107C782.797 143.643 785.178 143.646 786.645 145.114Z" fill="#70C05B"/>
<path d="M764.535 17.4964C763.557 16.038 763.946 14.0627 765.404 13.0845L780.852 2.72311C782.311 1.74492 784.286 2.13421 785.264 3.59263L788.32 8.14785C789.298 9.60627 788.909 11.5815 787.45 12.5597L772.002 22.9212C770.544 23.8993 768.568 23.51 767.59 22.0516L764.535 17.4964Z" fill="#1CB9FC"/>
<path d="M731.302 127.871C733.032 127.574 734.676 128.736 734.974 130.467L738.121 148.8C738.418 150.531 737.255 152.175 735.525 152.472L730.119 153.4C728.388 153.697 726.744 152.535 726.447 150.804L723.3 132.471C723.003 130.74 724.165 129.096 725.896 128.799L731.302 127.871Z" fill="#1CB9FC"/>
</g>
</svg>
